<svg width="46" height="38" viewBox="0 0 46 38" fill="none" xmlns="http://www.w3.org/2000/svg">
<path d="M23 0.8125C14.4222 0.8125 6.55119 3.8113 0.411638 8.6512C0.190719 8.82707 0.0459588 9.08711 0.00920269 9.3741C-0.0275534 9.66109 0.0467058 9.95153 0.215644 10.1815C0.384582 10.4115 0.634361 10.5622 0.910032 10.6005C1.1857 10.6388 1.46468 10.5614 1.6856 10.3856C7.47142 5.82454 14.8902 2.98897 23 2.98897C31.1098 2.98897 38.5286 5.82454 44.3144 10.3856C44.5353 10.5614 44.8143 10.6388 45.09 10.6005C45.3656 10.5622 45.6154 10.4115 45.7844 10.1815C45.9533 9.95153 46.0276 9.66109 45.9908 9.3741C45.954 9.08711 45.8093 8.82707 45.5884 8.6512C39.4488 3.8113 31.5778 0.8125 23 0.8125ZM23 11.1507C16.8533 11.1507 11.1223 13.0877 6.66713 16.83C6.54386 16.9127 6.4387 17.0216 6.35848 17.1494C6.27827 17.2773 6.22481 17.4213 6.20156 17.5721C6.17831 17.7229 6.1858 17.8771 6.22355 18.0246C6.26129 18.1722 6.32844 18.3098 6.42064 18.4286C6.51284 18.5474 6.62801 18.6446 6.75868 18.714C6.88934 18.7834 7.03257 18.8234 7.17906 18.8314C7.32555 18.8394 7.47201 18.8152 7.60893 18.7604C7.74584 18.7056 7.87015 18.6214 7.97376 18.5133C12.0217 15.1131 17.2751 13.3272 23 13.3272C28.7249 13.3272 33.9783 15.1131 38.0262 18.5133C38.1299 18.6214 38.2542 18.7056 38.3911 18.7604C38.528 18.8152 38.6745 18.8394 38.8209 18.8314C38.9674 18.8234 39.1107 18.7834 39.2413 18.714C39.372 18.6446 39.4872 18.5474 39.5794 18.4286C39.6716 18.3098 39.7387 18.1722 39.7765 18.0246C39.8142 17.8771 39.8217 17.7229 39.7984 17.5721C39.7752 17.4213 39.7217 17.2773 39.6415 17.1494C39.5613 17.0216 39.4561 16.9127 39.3329 16.83C34.8777 13.0877 29.1467 11.1507 23 11.1507ZM23 20.9449C19.2465 20.9449 15.6812 22.1686 12.939 24.4306C12.7216 24.6115 12.5819 24.8746 12.5504 25.1624C12.519 25.4503 12.5983 25.7394 12.7711 25.9664C12.9439 26.1935 13.196 26.3401 13.4723 26.3741C13.7487 26.4082 14.0267 26.3268 14.2456 26.148C16.5865 24.217 19.6893 23.1213 23 23.1213C26.3107 23.1213 29.4135 24.217 31.7544 26.148C31.9733 26.3268 32.2513 26.4082 32.5277 26.3741C32.804 26.3401 33.0561 26.1935 33.2289 25.9664C33.4017 25.7394 33.481 25.4503 33.4496 25.1624C33.4181 24.8746 33.2784 24.6115 33.0611 24.4306C30.3188 22.1686 26.7535 20.9449 23 20.9449ZM23 31.2831C21.2681 31.2831 19.8641 32.7448 19.8641 34.5478C19.8641 36.3508 21.2681 37.8125 23 37.8125C24.7319 37.8125 26.1359 36.3508 26.1359 34.5478C26.1359 32.7448 24.7319 31.2831 23 31.2831Z" fill="#4F4F4F"/>
</svg>
